<?xml version="1.0" encoding="UTF-8" standalone="no"?>
<!-- Generator: Adobe Illustrator 19.1.0, SVG Export Plug-In . SVG Version: 6.00 Build 0)  -->

<svg
   xmlns:dc="http://purl.org/dc/elements/1.1/"
   xmlns:cc="http://creativecommons.org/ns#"
   xmlns:rdf="http://www.w3.org/1999/02/22-rdf-syntax-ns#"
   xmlns:svg="http://www.w3.org/2000/svg"
   xmlns="http://www.w3.org/2000/svg"
   xmlns:sodipodi="http://sodipodi.sourceforge.net/DTD/sodipodi-0.dtd"
   xmlns:inkscape="http://www.inkscape.org/namespaces/inkscape"
   version="1.1"
   id="Layer_1"
   x="0px"
   y="0px"
   width="19.548317"
   height="19.514721"
   viewBox="0 0 19.548317 19.514721"
   enable-background="new 0 0 480 295"
   xml:space="preserve"
   sodipodi:docname="CheckedCircle.svg"
   inkscape:version="0.92.3 (2405546, 2018-03-11)"><metadata
   id="metadata319"><rdf:RDF><cc:Work
       rdf:about=""><dc:format>image/svg+xml</dc:format><dc:type
         rdf:resource="http://purl.org/dc/dcmitype/StillImage" /><dc:title></dc:title></cc:Work></rdf:RDF></metadata><defs
   id="defs317" /><sodipodi:namedview
   pagecolor="#ffffff"
   bordercolor="#666666"
   borderopacity="1"
   objecttolerance="10"
   gridtolerance="10"
   guidetolerance="10"
   inkscape:pageopacity="0"
   inkscape:pageshadow="2"
   inkscape:window-width="3840"
   inkscape:window-height="2066"
   id="namedview315"
   showgrid="false"
   fit-margin-top="0"
   fit-margin-left="0"
   fit-margin-right="0"
   fit-margin-bottom="0"
   inkscape:zoom="4.1483598"
   inkscape:cx="-276.56797"
   inkscape:cy="87.979904"
   inkscape:window-x="-11"
   inkscape:window-y="-11"
   inkscape:window-maximized="1"
   inkscape:current-layer="Layer_1" />





















<path
   d="m 14.47416,5.2741601 -7.0000001,7.7999999 -2.4,-3.3999999 c -0.2,-0.2 -0.5,-0.3 -0.7,-0.1 -0.2,0.2 -0.3,0.4999999 -0.1,0.6999999 l 2.8,3.9 c 0.1,0.1 0.2,0.2 0.4,0.2 0,0 0,0 0,0 0.1,0 0.3,-0.1 0.4,-0.2 L 15.27416,5.8741601 c 0.2,-0.2 0.2,-0.5 0,-0.7 -0.3,-0.1 -0.6,-0.1 -0.8,0.1 z"
   id="path48"
   inkscape:connector-curvature="0"
   style="clip-rule:evenodd;fill:#444444;fill-rule:evenodd" />



















































<g
   id="g300"
   transform="translate(-444.62584,-247.42584)">
	<path
   d="m 461.8,263.6 c 3.5,-4.1 3.1,-10.2 -1,-13.8 -4.1,-3.5 -10.2,-3.1 -13.8,1 -3.5,4.1 -3.1,10.2 1,13.8 4.1,3.5 10.2,3 13.8,-1 z M 449,263.4 c -3.4,-3 -3.8,-8.2 -0.8,-11.6 3,-3.4 8.2,-3.8 11.6,-0.8 3.4,3 3.8,8.2 0.8,11.6 -3,3.4 -8.2,3.8 -11.6,0.8 z"
   id="path298"
   inkscape:connector-curvature="0"
   style="clip-rule:evenodd;fill:#444444;fill-rule:evenodd" />
</g>






</svg>