<?xml version="1.0" encoding="UTF-8" standalone="no"?>
<!-- Generator: Adobe Illustrator 19.1.0, SVG Export Plug-In . SVG Version: 6.00 Build 0)  -->

<svg
   xmlns:dc="http://purl.org/dc/elements/1.1/"
   xmlns:cc="http://creativecommons.org/ns#"
   xmlns:rdf="http://www.w3.org/1999/02/22-rdf-syntax-ns#"
   xmlns:svg="http://www.w3.org/2000/svg"
   xmlns="http://www.w3.org/2000/svg"
   xmlns:sodipodi="http://sodipodi.sourceforge.net/DTD/sodipodi-0.dtd"
   xmlns:inkscape="http://www.inkscape.org/namespaces/inkscape"
   version="1.1"
   id="Layer_1"
   x="0px"
   y="0px"
   width="17.56423"
   height="17.525"
   viewBox="0 0 17.56423 17.525"
   enable-background="new 0 0 480 295"
   xml:space="preserve"
   sodipodi:docname="edit.svg"
   inkscape:version="0.92.3 (2405546, 2018-03-11)"><metadata
   id="metadata319"><rdf:RDF><cc:Work
       rdf:about=""><dc:format>image/svg+xml</dc:format><dc:type
         rdf:resource="http://purl.org/dc/dcmitype/StillImage" /><dc:title></dc:title></cc:Work></rdf:RDF></metadata><defs
   id="defs317" /><sodipodi:namedview
   pagecolor="#ffffff"
   bordercolor="#666666"
   borderopacity="1"
   objecttolerance="10"
   gridtolerance="10"
   guidetolerance="10"
   inkscape:pageopacity="0"
   inkscape:pageshadow="2"
   inkscape:window-width="3840"
   inkscape:window-height="2066"
   id="namedview315"
   showgrid="false"
   fit-margin-top="0"
   fit-margin-left="0"
   fit-margin-right="0"
   fit-margin-bottom="0"
   inkscape:zoom="4.1483598"
   inkscape:cx="-135.3029"
   inkscape:cy="-165.54539"
   inkscape:window-x="-11"
   inkscape:window-y="-11"
   inkscape:window-maximized="1"
   inkscape:current-layer="Layer_1" />







<path
   d="m 0.83923048,17.525 c 0.1,0 0.1,0 0.20000002,0 l 5.5,-1.6 c 0.2,0 0.3,-0.2 0.4,-0.3 L 17.33923,5.225 c 0.3,-0.3 0.3,-0.8 0,-1.1 l -3.9,-3.9 c -0.3,-0.3 -0.8,-0.3 -1.1,0 l -10.3999995,10.4 c -0.1,0.1 -0.3,0.2 -0.3,0.4 l -1.60000002,5.5 c -0.1,0.3 0,0.5 0.2,0.7 0.2,0.2 0.4,0.3 0.6,0.3 z m 1.00000002,-1.8 0.9,-3 2.1,2.1 z m 11.0999995,-13.9 2.8,2.8 -9.3999995,9.4 -2.8,-2.8 z"
   id="path16"
   inkscape:connector-curvature="0"
   style="clip-rule:evenodd;fill:#444444;fill-rule:evenodd" />








































































</svg>