<?xml version="1.0" encoding="UTF-8" standalone="no"?>
<!-- Generator: Adobe Illustrator 19.1.0, SVG Export Plug-In . SVG Version: 6.00 Build 0)  -->

<svg
   xmlns:dc="http://purl.org/dc/elements/1.1/"
   xmlns:cc="http://creativecommons.org/ns#"
   xmlns:rdf="http://www.w3.org/1999/02/22-rdf-syntax-ns#"
   xmlns:svg="http://www.w3.org/2000/svg"
   xmlns="http://www.w3.org/2000/svg"
   xmlns:sodipodi="http://sodipodi.sourceforge.net/DTD/sodipodi-0.dtd"
   xmlns:inkscape="http://www.inkscape.org/namespaces/inkscape"
   version="1.1"
   id="Layer_1"
   x="0px"
   y="0px"
   width="19.548317"
   height="19.548317"
   viewBox="0 0 19.548317 19.548317"
   enable-background="new 0 0 480 295"
   xml:space="preserve"
   sodipodi:docname="ExclamationCircle.svg"
   inkscape:version="0.92.3 (2405546, 2018-03-11)"><metadata
   id="metadata319"><rdf:RDF><cc:Work
       rdf:about=""><dc:format>image/svg+xml</dc:format><dc:type
         rdf:resource="http://purl.org/dc/dcmitype/StillImage" /><dc:title></dc:title></cc:Work></rdf:RDF></metadata><defs
   id="defs317" /><sodipodi:namedview
   pagecolor="#ffffff"
   bordercolor="#666666"
   borderopacity="1"
   objecttolerance="10"
   gridtolerance="10"
   guidetolerance="10"
   inkscape:pageopacity="0"
   inkscape:pageshadow="2"
   inkscape:window-width="3840"
   inkscape:window-height="2066"
   id="namedview315"
   showgrid="false"
   fit-margin-top="0"
   fit-margin-left="0"
   fit-margin-right="0"
   fit-margin-bottom="0"
   inkscape:zoom="4.1483598"
   inkscape:cx="-227.49787"
   inkscape:cy="111.33385"
   inkscape:window-x="-11"
   inkscape:window-y="-11"
   inkscape:window-maximized="1"
   inkscape:current-layer="Layer_1" />








































































<g
   id="g296"
   transform="translate(-398.02584,-246.32584)">
	<path
   d="m 415.2,262.5 c 3.5,-4.1 3.1,-10.2 -1,-13.8 -4.1,-3.5 -10.2,-3.1 -13.8,1 -3.5,4.1 -3.1,10.2 1,13.8 4.1,3.5 10.3,3.1 13.8,-1 z m -12.7,-0.1 c -3.4,-3 -3.8,-8.2 -0.8,-11.6 3,-3.4 8.2,-3.8 11.6,-0.8 3.4,3 3.8,8.2 0.8,11.6 -3,3.4 -8.2,3.7 -11.6,0.8 z"
   id="path294"
   inkscape:connector-curvature="0"
   style="clip-rule:evenodd;fill:#444444;fill-rule:evenodd" />
</g>


<path
   d="m 9.6741601,3.8741601 v 0 c 0.3,0 0.4999999,0.1 0.5999999,0.3 l 0.1,6.7999999 c 0,0.2 -0.2,0.4 -0.4999999,0.5 v 0 c -0.3,0 -0.5,-0.1 -0.6,-0.3 l -0.1,-6.7999999 c 0,-0.2 0.2,-0.4 0.5,-0.5 z"
   id="path304"
   inkscape:connector-curvature="0"
   style="fill:#444444" />



<path
   d="m 9.9741601,14.07416 h -0.2 c -0.3,0 -0.6,0.3 -0.6,0.6 v 0.2 c 0,0.3 0.3,0.6 0.6,0.6 h 0.2 c 0.2999999,0 0.5999999,-0.3 0.5999999,-0.6 v -0.2 c 0,-0.3 -0.2,-0.6 -0.5999999,-0.6 z"
   id="path312"
   inkscape:connector-curvature="0"
   style="fill:#444444" />
</svg>